<svg width="18" height="20" viewBox="0 0 18 20" fill="none" xmlns="http://www.w3.org/2000/svg">
<path d="M2.45763 18.1412C2.51857 18.8116 3.06711 19.2992 3.73754 19.2992H14.2612C14.9317 19.2992 15.4802 18.7913 15.5411 18.1412L16.7195 5.78906H1.2793L2.45763 18.1412Z" fill="white"/>
<path d="M16.7201 1.93002H11.5801V1.27991C11.5801 0.568849 11.0113 0 10.3002 0H7.72009C7.00903 0 6.44018 0.568849 6.44018 1.27991V1.93002H1.27991C0.568849 1.93002 0 2.49887 0 3.20993C0 3.92099 0.568849 4.48984 1.27991 4.48984H16.7201C17.4312 4.48984 18 3.92099 18 3.20993C18 2.49887 17.4312 1.93002 16.7201 1.93002Z" fill="white"/>
</svg>
